<svg width="923" height="134" viewBox="0 0 923 134" fill="none" xmlns="http://www.w3.org/2000/svg">
<rect x="544.5" y="0.5" width="186" height="92" fill="white" stroke="black"/>
<rect x="193.5" y="0.5" width="186" height="92" fill="white" stroke="black"/>
<path d="M585.928 54V36.96H593.152C593.936 36.96 594.656 37.12 595.312 37.44C595.984 37.76 596.56 38.192 597.04 38.736C597.52 39.28 597.896 39.888 598.168 40.56C598.44 41.232 598.576 41.92 598.576 42.624C598.576 43.584 598.352 44.496 597.904 45.36C597.456 46.224 596.832 46.928 596.032 47.472C595.248 48.016 594.328 48.288 593.272 48.288H589.24V54H585.928ZM589.24 45.384H593.08C593.688 45.384 594.192 45.136 594.592 44.64C595.008 44.128 595.216 43.456 595.216 42.624C595.216 41.744 594.984 41.064 594.52 40.584C594.056 40.104 593.528 39.864 592.936 39.864H589.24V45.384ZM608.057 44.208C607.081 44.208 606.209 44.4 605.441 44.784C604.673 45.152 604.121 45.688 603.785 46.392V54H600.569V41.424H603.521V44.112C603.953 43.248 604.513 42.568 605.201 42.072C605.905 41.576 606.641 41.304 607.409 41.256C607.745 41.256 607.961 41.264 608.057 41.28V44.208ZM615.495 54.24C614.119 54.24 612.935 53.944 611.943 53.352C610.967 52.744 610.215 51.944 609.687 50.952C609.159 49.96 608.895 48.888 608.895 47.736C608.895 46.568 609.159 45.488 609.687 44.496C610.231 43.504 610.991 42.712 611.967 42.12C612.959 41.512 614.135 41.208 615.495 41.208C616.855 41.208 618.023 41.512 618.999 42.12C619.991 42.712 620.751 43.504 621.279 44.496C621.807 45.488 622.071 46.568 622.071 47.736C622.071 48.888 621.807 49.96 621.279 50.952C620.751 51.944 619.991 52.744 618.999 53.352C618.023 53.944 616.855 54.24 615.495 54.24ZM612.207 47.736C612.207 48.472 612.351 49.128 612.639 49.704C612.927 50.264 613.319 50.704 613.815 51.024C614.311 51.344 614.871 51.504 615.495 51.504C616.103 51.504 616.655 51.344 617.151 51.024C617.647 50.688 618.039 50.24 618.327 49.68C618.631 49.104 618.783 48.448 618.783 47.712C618.783 46.992 618.631 46.352 618.327 45.792C618.039 45.216 617.647 44.768 617.151 44.448C616.655 44.112 616.103 43.944 615.495 43.944C614.871 43.944 614.311 44.112 613.815 44.448C613.319 44.768 612.927 45.216 612.639 45.792C612.351 46.352 612.207 47 612.207 47.736ZM630.097 54.24C628.737 54.24 627.561 53.936 626.569 53.328C625.577 52.72 624.809 51.92 624.265 50.928C623.721 49.936 623.449 48.864 623.449 47.712C623.449 46.544 623.713 45.464 624.241 44.472C624.785 43.48 625.553 42.688 626.545 42.096C627.537 41.504 628.713 41.208 630.073 41.208C631.449 41.208 632.617 41.504 633.577 42.096C634.553 42.688 635.281 43.464 635.761 44.424L632.617 45.384C632.057 44.424 631.201 43.944 630.049 43.944C629.425 43.944 628.865 44.104 628.369 44.424C627.873 44.728 627.481 45.168 627.193 45.744C626.905 46.304 626.761 46.96 626.761 47.712C626.761 48.448 626.905 49.104 627.193 49.68C627.497 50.24 627.897 50.688 628.393 51.024C628.889 51.344 629.441 51.504 630.049 51.504C630.625 51.504 631.153 51.368 631.633 51.096C632.129 50.808 632.473 50.448 632.665 50.016L635.809 50.976C635.377 51.92 634.657 52.704 633.649 53.328C632.657 53.936 631.473 54.24 630.097 54.24ZM643.503 54.24C642.143 54.24 640.967 53.944 639.975 53.352C638.999 52.76 638.239 51.976 637.695 51C637.151 50.008 636.879 48.936 636.879 47.784C636.879 46.6 637.143 45.512 637.671 44.52C638.215 43.512 638.983 42.712 639.975 42.12C640.967 41.512 642.151 41.208 643.527 41.208C644.903 41.208 646.079 41.512 647.055 42.12C648.031 42.712 648.775 43.504 649.287 44.496C649.815 45.472 650.079 46.528 650.079 47.664C650.079 48.08 650.055 48.44 650.007 48.744H640.287C640.367 49.72 640.727 50.488 641.367 51.048C642.023 51.608 642.775 51.888 643.623 51.888C644.263 51.888 644.863 51.736 645.423 51.432C645.999 51.112 646.391 50.696 646.599 50.184L649.359 50.952C648.895 51.912 648.151 52.704 647.127 53.328C646.103 53.936 644.895 54.24 643.503 54.24ZM640.215 46.704H646.791C646.695 45.76 646.335 45 645.711 44.424C645.103 43.832 644.359 43.536 643.479 43.536C642.615 43.536 641.871 43.832 641.247 44.424C640.639 45 640.295 45.76 640.215 46.704ZM656.67 54.24C655.598 54.24 654.574 54.064 653.598 53.712C652.622 53.36 651.782 52.84 651.078 52.152L652.23 50.064C652.982 50.672 653.718 51.12 654.438 51.408C655.158 51.696 655.862 51.84 656.55 51.84C657.174 51.84 657.67 51.728 658.038 51.504C658.422 51.28 658.614 50.944 658.614 50.496C658.614 50.032 658.382 49.72 657.918 49.56C657.454 49.384 656.806 49.168 655.974 48.912C655.046 48.624 654.27 48.328 653.646 48.024C653.022 47.72 652.55 47.352 652.23 46.92C651.926 46.488 651.774 45.928 651.774 45.24C651.774 44.008 652.238 43.024 653.166 42.288C654.094 41.552 655.326 41.184 656.862 41.184C657.758 41.184 658.606 41.328 659.406 41.616C660.206 41.888 660.934 42.336 661.59 42.96L660.294 45C659.062 44.04 657.87 43.56 656.718 43.56C656.206 43.56 655.75 43.656 655.35 43.848C654.966 44.04 654.774 44.376 654.774 44.856C654.774 45.304 654.958 45.624 655.326 45.816C655.71 46.008 656.286 46.216 657.054 46.44C658.046 46.744 658.886 47.04 659.574 47.328C660.278 47.616 660.806 47.984 661.158 48.432C661.526 48.88 661.71 49.488 661.71 50.256C661.71 51.504 661.254 52.48 660.342 53.184C659.43 53.888 658.206 54.24 656.67 54.24ZM668.53 54.24C667.458 54.24 666.434 54.064 665.458 53.712C664.482 53.36 663.642 52.84 662.938 52.152L664.09 50.064C664.842 50.672 665.578 51.12 666.298 51.408C667.018 51.696 667.722 51.84 668.41 51.84C669.034 51.84 669.53 51.728 669.898 51.504C670.282 51.28 670.474 50.944 670.474 50.496C670.474 50.032 670.242 49.72 669.778 49.56C669.314 49.384 668.666 49.168 667.834 48.912C666.906 48.624 666.13 48.328 665.506 48.024C664.882 47.72 664.41 47.352 664.09 46.92C663.786 46.488 663.634 45.928 663.634 45.24C663.634 44.008 664.098 43.024 665.026 42.288C665.954 41.552 667.186 41.184 668.722 41.184C669.618 41.184 670.466 41.328 671.266 41.616C672.066 41.888 672.794 42.336 673.45 42.96L672.154 45C670.922 44.04 669.73 43.56 668.578 43.56C668.066 43.56 667.61 43.656 667.21 43.848C666.826 44.04 666.634 44.376 666.634 44.856C666.634 45.304 666.818 45.624 667.186 45.816C667.57 46.008 668.146 46.216 668.914 46.44C669.906 46.744 670.746 47.04 671.434 47.328C672.138 47.616 672.666 47.984 673.018 48.432C673.386 48.88 673.57 49.488 673.57 50.256C673.57 51.504 673.114 52.48 672.202 53.184C671.29 53.888 670.066 54.24 668.53 54.24ZM681.565 54.24C680.189 54.24 679.005 53.944 678.013 53.352C677.037 52.744 676.285 51.944 675.757 50.952C675.229 49.96 674.965 48.888 674.965 47.736C674.965 46.568 675.229 45.488 675.757 44.496C676.301 43.504 677.061 42.712 678.037 42.12C679.029 41.512 680.205 41.208 681.565 41.208C682.925 41.208 684.093 41.512 685.069 42.12C686.061 42.712 686.821 43.504 687.349 44.496C687.877 45.488 688.141 46.568 688.141 47.736C688.141 48.888 687.877 49.96 687.349 50.952C686.821 51.944 686.061 52.744 685.069 53.352C684.093 53.944 682.925 54.24 681.565 54.24ZM678.277 47.736C678.277 48.472 678.421 49.128 678.709 49.704C678.997 50.264 679.389 50.704 679.885 51.024C680.381 51.344 680.941 51.504 681.565 51.504C682.173 51.504 682.725 51.344 683.221 51.024C683.717 50.688 684.109 50.24 684.397 49.68C684.701 49.104 684.853 48.448 684.853 47.712C684.853 46.992 684.701 46.352 684.397 45.792C684.109 45.216 683.717 44.768 683.221 44.448C682.725 44.112 682.173 43.944 681.565 43.944C680.941 43.944 680.381 44.112 679.885 44.448C679.389 44.768 678.997 45.216 678.709 45.792C678.421 46.352 678.277 47 678.277 47.736Z" fill="#0A3E57"/>
<path d="M218.764 45.36C218.764 44.32 218.948 43.296 219.316 42.288C219.7 41.28 220.252 40.368 220.972 39.552C221.692 38.736 222.572 38.088 223.612 37.608C224.652 37.112 225.836 36.864 227.164 36.864C228.716 36.864 230.068 37.208 231.22 37.896C232.372 38.584 233.228 39.48 233.788 40.584L231.244 42.336C230.956 41.696 230.58 41.192 230.116 40.824C229.652 40.456 229.148 40.192 228.604 40.032C228.076 39.872 227.564 39.792 227.068 39.792C226.236 39.792 225.508 39.96 224.884 40.296C224.276 40.632 223.764 41.072 223.348 41.616C222.932 42.16 222.62 42.768 222.412 43.44C222.22 44.112 222.124 44.784 222.124 45.456C222.124 46.464 222.332 47.408 222.748 48.288C223.164 49.152 223.748 49.856 224.5 50.4C225.252 50.944 226.124 51.216 227.116 51.216C227.628 51.216 228.156 51.128 228.7 50.952C229.26 50.776 229.772 50.496 230.236 50.112C230.7 49.728 231.06 49.232 231.316 48.624L234.028 50.184C233.676 51.032 233.124 51.752 232.372 52.344C231.62 52.92 230.772 53.368 229.828 53.688C228.884 53.992 227.948 54.144 227.02 54.144C225.804 54.144 224.692 53.896 223.684 53.4C222.692 52.888 221.828 52.216 221.092 51.384C220.356 50.536 219.78 49.592 219.364 48.552C218.964 47.496 218.764 46.432 218.764 45.36ZM241.698 54.24C240.322 54.24 239.138 53.944 238.146 53.352C237.17 52.744 236.418 51.944 235.89 50.952C235.362 49.96 235.098 48.888 235.098 47.736C235.098 46.568 235.362 45.488 235.89 44.496C236.434 43.504 237.194 42.712 238.17 42.12C239.162 41.512 240.338 41.208 241.698 41.208C243.058 41.208 244.226 41.512 245.202 42.12C246.194 42.712 246.954 43.504 247.482 44.496C248.01 45.488 248.274 46.568 248.274 47.736C248.274 48.888 248.01 49.96 247.482 50.952C246.954 51.944 246.194 52.744 245.202 53.352C244.226 53.944 243.058 54.24 241.698 54.24ZM238.41 47.736C238.41 48.472 238.554 49.128 238.842 49.704C239.13 50.264 239.522 50.704 240.018 51.024C240.514 51.344 241.074 51.504 241.698 51.504C242.306 51.504 242.858 51.344 243.354 51.024C243.85 50.688 244.242 50.24 244.53 49.68C244.834 49.104 244.986 48.448 244.986 47.712C244.986 46.992 244.834 46.352 244.53 45.792C244.242 45.216 243.85 44.768 243.354 44.448C242.858 44.112 242.306 43.944 241.698 43.944C241.074 43.944 240.514 44.112 240.018 44.448C239.522 44.768 239.13 45.216 238.842 45.792C238.554 46.352 238.41 47 238.41 47.736ZM262.132 54H258.916V46.944C258.916 45.936 258.74 45.2 258.388 44.736C258.036 44.272 257.548 44.04 256.924 44.04C256.492 44.04 256.052 44.152 255.604 44.376C255.172 44.6 254.78 44.912 254.428 45.312C254.076 45.696 253.82 46.144 253.66 46.656V54H250.444V41.424H253.348V43.752C253.812 42.968 254.484 42.352 255.364 41.904C256.244 41.44 257.236 41.208 258.34 41.208C259.124 41.208 259.764 41.352 260.26 41.64C260.756 41.912 261.14 42.288 261.412 42.768C261.684 43.232 261.868 43.76 261.964 44.352C262.076 44.944 262.132 45.544 262.132 46.152V54ZM272.395 53.352C271.963 53.544 271.427 53.736 270.787 53.928C270.163 54.12 269.515 54.216 268.843 54.216C268.251 54.216 267.707 54.112 267.211 53.904C266.715 53.696 266.315 53.368 266.011 52.92C265.723 52.456 265.579 51.856 265.579 51.12V43.896H263.923V41.424H265.579V37.344H268.795V41.424H271.435V43.896H268.795V50.04C268.795 50.472 268.907 50.784 269.131 50.976C269.371 51.168 269.659 51.264 269.995 51.264C270.331 51.264 270.659 51.208 270.979 51.096C271.299 50.984 271.555 50.888 271.747 50.808L272.395 53.352ZM281.557 44.208C280.581 44.208 279.709 44.4 278.941 44.784C278.173 45.152 277.621 45.688 277.285 46.392V54H274.069V41.424H277.021V44.112C277.453 43.248 278.013 42.568 278.701 42.072C279.405 41.576 280.141 41.304 280.909 41.256C281.245 41.256 281.461 41.264 281.557 41.28V44.208ZM288.995 54.24C287.619 54.24 286.435 53.944 285.443 53.352C284.467 52.744 283.715 51.944 283.187 50.952C282.659 49.96 282.395 48.888 282.395 47.736C282.395 46.568 282.659 45.488 283.187 44.496C283.731 43.504 284.491 42.712 285.467 42.12C286.459 41.512 287.635 41.208 288.995 41.208C290.355 41.208 291.523 41.512 292.499 42.12C293.491 42.712 294.251 43.504 294.779 44.496C295.307 45.488 295.571 46.568 295.571 47.736C295.571 48.888 295.307 49.96 294.779 50.952C294.251 51.944 293.491 52.744 292.499 53.352C291.523 53.944 290.355 54.24 288.995 54.24ZM285.707 47.736C285.707 48.472 285.851 49.128 286.139 49.704C286.427 50.264 286.819 50.704 287.315 51.024C287.811 51.344 288.371 51.504 288.995 51.504C289.603 51.504 290.155 51.344 290.651 51.024C291.147 50.688 291.539 50.24 291.827 49.68C292.131 49.104 292.283 48.448 292.283 47.712C292.283 46.992 292.131 46.352 291.827 45.792C291.539 45.216 291.147 44.768 290.651 44.448C290.155 44.112 289.603 43.944 288.995 43.944C288.371 43.944 287.811 44.112 287.315 44.448C286.819 44.768 286.427 45.216 286.139 45.792C285.851 46.352 285.707 47 285.707 47.736ZM297.717 36.48H300.933V49.968C300.933 50.56 301.029 50.952 301.221 51.144C301.413 51.336 301.677 51.432 302.013 51.432C302.269 51.432 302.533 51.4 302.805 51.336C303.077 51.272 303.317 51.192 303.525 51.096L303.957 53.544C303.525 53.752 303.021 53.912 302.445 54.024C301.869 54.136 301.349 54.192 300.885 54.192C299.877 54.192 299.093 53.928 298.533 53.4C297.989 52.856 297.717 52.088 297.717 51.096V36.48ZM304.495 50.28C304.495 49.464 304.719 48.752 305.167 48.144C305.631 47.52 306.271 47.04 307.087 46.704C307.903 46.368 308.839 46.2 309.895 46.2C310.423 46.2 310.959 46.248 311.503 46.344C312.047 46.424 312.519 46.544 312.919 46.704V46.032C312.919 45.232 312.679 44.616 312.199 44.184C311.735 43.752 311.039 43.536 310.111 43.536C309.423 43.536 308.767 43.656 308.143 43.896C307.519 44.136 306.863 44.488 306.175 44.952L305.143 42.84C305.975 42.296 306.823 41.888 307.687 41.616C308.567 41.344 309.487 41.208 310.447 41.208C312.239 41.208 313.631 41.656 314.623 42.552C315.631 43.448 316.135 44.728 316.135 46.392V50.4C316.135 50.752 316.191 51 316.303 51.144C316.415 51.272 316.615 51.352 316.903 51.384V54C316.615 54.064 316.351 54.104 316.111 54.12C315.887 54.152 315.695 54.168 315.535 54.168C314.895 54.168 314.407 54.024 314.071 53.736C313.735 53.448 313.535 53.096 313.471 52.68L313.399 52.032C312.839 52.752 312.151 53.304 311.335 53.688C310.535 54.056 309.711 54.24 308.863 54.24C308.015 54.24 307.263 54.072 306.607 53.736C305.951 53.384 305.431 52.912 305.047 52.32C304.679 51.712 304.495 51.032 304.495 50.28ZM312.319 50.928C312.719 50.544 312.919 50.176 312.919 49.824V48.552C312.087 48.216 311.247 48.048 310.399 48.048C309.551 48.048 308.863 48.232 308.335 48.6C307.807 48.952 307.543 49.424 307.543 50.016C307.543 50.496 307.735 50.928 308.119 51.312C308.503 51.696 309.055 51.888 309.775 51.888C310.255 51.888 310.719 51.8 311.167 51.624C311.631 51.448 312.015 51.216 312.319 50.928ZM318.372 47.712C318.372 46.512 318.612 45.416 319.092 44.424C319.572 43.432 320.236 42.648 321.084 42.072C321.932 41.496 322.9 41.208 323.988 41.208C324.916 41.208 325.748 41.44 326.484 41.904C327.236 42.352 327.82 42.928 328.236 43.632V36.48H331.452V50.4C331.452 50.752 331.508 51 331.62 51.144C331.732 51.272 331.924 51.352 332.196 51.384V54C331.62 54.112 331.164 54.168 330.828 54.168C330.252 54.168 329.772 54.024 329.388 53.736C329.02 53.448 328.812 53.072 328.764 52.608L328.716 51.816C328.252 52.6 327.62 53.2 326.82 53.616C326.036 54.032 325.212 54.24 324.348 54.24C323.18 54.24 322.148 53.952 321.252 53.376C320.356 52.784 319.652 52 319.14 51.024C318.628 50.032 318.372 48.928 318.372 47.712ZM328.236 49.392V46.392C327.98 45.688 327.54 45.104 326.916 44.64C326.292 44.176 325.652 43.944 324.996 43.944C324.34 43.944 323.764 44.128 323.268 44.496C322.772 44.848 322.388 45.32 322.116 45.912C321.844 46.488 321.708 47.112 321.708 47.784C321.708 48.472 321.86 49.104 322.164 49.68C322.468 50.24 322.876 50.688 323.388 51.024C323.916 51.344 324.516 51.504 325.188 51.504C325.796 51.504 326.396 51.304 326.988 50.904C327.596 50.504 328.012 50 328.236 49.392ZM340.417 54.24C339.041 54.24 337.857 53.944 336.865 53.352C335.889 52.744 335.137 51.944 334.609 50.952C334.081 49.96 333.817 48.888 333.817 47.736C333.817 46.568 334.081 45.488 334.609 44.496C335.153 43.504 335.913 42.712 336.889 42.12C337.881 41.512 339.057 41.208 340.417 41.208C341.777 41.208 342.945 41.512 343.921 42.12C344.913 42.712 345.673 43.504 346.201 44.496C346.729 45.488 346.993 46.568 346.993 47.736C346.993 48.888 346.729 49.96 346.201 50.952C345.673 51.944 344.913 52.744 343.921 53.352C342.945 53.944 341.777 54.24 340.417 54.24ZM337.129 47.736C337.129 48.472 337.273 49.128 337.561 49.704C337.849 50.264 338.241 50.704 338.737 51.024C339.233 51.344 339.793 51.504 340.417 51.504C341.025 51.504 341.577 51.344 342.073 51.024C342.569 50.688 342.961 50.24 343.249 49.68C343.553 49.104 343.705 48.448 343.705 47.712C343.705 46.992 343.553 46.352 343.249 45.792C342.961 45.216 342.569 44.768 342.073 44.448C341.577 44.112 341.025 43.944 340.417 43.944C339.793 43.944 339.233 44.112 338.737 44.448C338.241 44.768 337.849 45.216 337.561 45.792C337.273 46.352 337.129 47 337.129 47.736ZM356.651 44.208C355.675 44.208 354.803 44.4 354.035 44.784C353.267 45.152 352.715 45.688 352.379 46.392V54H349.163V41.424H352.115V44.112C352.547 43.248 353.107 42.568 353.795 42.072C354.499 41.576 355.235 41.304 356.003 41.256C356.339 41.256 356.555 41.264 356.651 41.28V44.208Z" fill="#0A3E57"/>
<g filter="url(#filter0_d)">
<circle cx="97.5" cy="46.5" r="29.5" fill="white"/>
<circle cx="97.5" cy="46.5" r="29" stroke="black"/>
</g>
<path d="M89.4631 43.616V46.304H83.5111V52.784H80.4871V46.304H74.5351V43.616H80.4871V37.136H83.5111V43.616H89.4631Z" fill="#0A3E57"/>
<path d="M91.495 67.432V64.408H105.511V67.432H91.495Z" fill="#0A3E57"/>
<path d="M68.0524 48.0766C68.647 47.4998 68.6614 46.5501 68.0845 45.9555L58.6843 36.2661C58.1074 35.6715 57.1578 35.6571 56.5632 36.2339C55.9686 36.8108 55.9542 37.7604 56.5311 38.355L64.8869 46.9679L56.274 55.3236C55.6794 55.9005 55.665 56.8501 56.2419 57.4447C56.8187 58.0393 57.7684 58.0537 58.363 57.4768L68.0524 48.0766ZM0.977278 47.4998L66.9852 48.4998L67.0307 45.5002L1.02272 44.5002L0.977278 47.4998Z" fill="black"/>
<path d="M194.061 48.0607C194.646 47.4749 194.646 46.5251 194.061 45.9393L184.515 36.3934C183.929 35.8076 182.979 35.8076 182.393 36.3934C181.808 36.9792 181.808 37.9289 182.393 38.5147L190.879 47L182.393 55.4853C181.808 56.0711 181.808 57.0208 182.393 57.6066C182.979 58.1924 183.929 58.1924 184.515 57.6066L194.061 48.0607ZM127 48.5L193 48.5V45.5L127 45.5V48.5Z" fill="black"/>
<path d="M545.061 47.0607C545.646 46.4749 545.646 45.5251 545.061 44.9393L535.515 35.3934C534.929 34.8076 533.979 34.8076 533.393 35.3934C532.808 35.9792 532.808 36.9289 533.393 37.5147L541.879 46L533.393 54.4853C532.808 55.0711 532.808 56.0208 533.393 56.6066C533.979 57.1924 534.929 57.1924 535.515 56.6066L545.061 47.0607ZM380 47.5L544 47.5L544 44.5L380 44.5L380 47.5Z" fill="black"/>
<path d="M922.055 48.0662C922.644 47.4835 922.649 46.5338 922.066 45.9449L912.571 36.3489C911.988 35.76 911.038 35.755 910.449 36.3377C909.861 36.9204 909.856 37.8702 910.438 38.459L918.879 46.9888L910.349 55.4293C909.76 56.012 909.755 56.9618 910.338 57.5506C910.92 58.1395 911.87 58.1445 912.459 57.5618L922.055 48.0662ZM730.992 47.5L920.992 48.5L921.008 45.5L731.008 44.5L730.992 47.5Z" fill="black"/>
<line x1="811.5" y1="47" x2="811.5" y2="133" stroke="black" stroke-width="3"/>
<line x1="813" y1="132.118" x2="96.9992" y2="132.118" stroke="black" stroke-width="3"/>
<path d="M99.3107 75.9382C98.7249 75.3524 97.7751 75.3524 97.1893 75.9382L87.6434 85.4841C87.0576 86.0699 87.0576 87.0196 87.6434 87.6054C88.2292 88.1912 89.1789 88.1912 89.7647 87.6054L98.25 79.1201L106.735 87.6054C107.321 88.1912 108.271 88.1912 108.857 87.6054C109.442 87.0196 109.442 86.0699 108.857 85.4841L99.3107 75.9382ZM99.75 131.006V76.9988H96.75V131.006H99.75Z" fill="black"/>
<g filter="url(#filter1_d)">
<circle cx="811" cy="47" r="5" fill="black"/>
<circle cx="811" cy="47" r="4.5" stroke="black"/>
</g>
<defs>
<filter id="filter0_d" x="64" y="17" width="67" height="67" filterUnits="userSpaceOnUse" color-interpolation-filters="sRGB">
<feFlood flood-opacity="0" result="BackgroundImageFix"/>
<feColorMatrix in="SourceAlpha" type="matrix" values="0 0 0 0 0 0 0 0 0 0 0 0 0 0 0 0 0 0 127 0" result="hardAlpha"/>
<feOffset dy="4"/>
<feGaussianBlur stdDeviation="2"/>
<feComposite in2="hardAlpha" operator="out"/>
<feColorMatrix type="matrix" values="0 0 0 0 0 0 0 0 0 0 0 0 0 0 0 0 0 0 0.25 0"/>
<feBlend mode="normal" in2="BackgroundImageFix" result="effect1_dropShadow"/>
<feBlend mode="normal" in="SourceGraphic" in2="effect1_dropShadow" result="shape"/>
</filter>
<filter id="filter1_d" x="802" y="42" width="18" height="18" filterUnits="userSpaceOnUse" color-interpolation-filters="sRGB">
<feFlood flood-opacity="0" result="BackgroundImageFix"/>
<feColorMatrix in="SourceAlpha" type="matrix" values="0 0 0 0 0 0 0 0 0 0 0 0 0 0 0 0 0 0 127 0" result="hardAlpha"/>
<feOffset dy="4"/>
<feGaussianBlur stdDeviation="2"/>
<feComposite in2="hardAlpha" operator="out"/>
<feColorMatrix type="matrix" values="0 0 0 0 0 0 0 0 0 0 0 0 0 0 0 0 0 0 0.25 0"/>
<feBlend mode="normal" in2="BackgroundImageFix" result="effect1_dropShadow"/>
<feBlend mode="normal" in="SourceGraphic" in2="effect1_dropShadow" result="shape"/>
</filter>
</defs>
</svg>
